<?xml version="1.0" encoding="UTF-8" standalone="no"?>
<!DOCTYPE svg PUBLIC "-//W3C//DTD SVG 1.1//EN" "http://www.w3.org/Graphics/SVG/1.1/DTD/svg11.dtd">
<!-- Создано Microsoft Visio, экспорт SVG radio.svg Страница-1 -->
<svg xmlns="http://www.w3.org/2000/svg" xmlns:xlink="http://www.w3.org/1999/xlink" xmlns:ev="http://www.w3.org/2001/xml-events"
		width="144px" height="130.356px" viewBox="0 0 85.7894 77.6604" xml:space="preserve" color-interpolation-filters="sRGB"
		class="st5">
	<style type="text/css">
	<![CDATA[
		.st1 {fill:none;stroke:#ffffff;stroke-linecap:round;stroke-linejoin:round;stroke-width:0.75}
		.st2 {stroke:#ffffff;stroke-linecap:round;stroke-linejoin:round;stroke-width:1.5}
		.st3 {stroke:#ffffff;stroke-linecap:round;stroke-linejoin:round;stroke-width:0.25}
		.st4 {stroke:#ffffff;stroke-linecap:round;stroke-linejoin:round;stroke-width:0.75}
		.st5 {fill:none;fill-rule:evenodd;font-size:12px;overflow:visible;stroke-linecap:square;stroke-miterlimit:3}
	]]>
	</style>

	<g>
		<title>Страница-1</title>
		<g id="shape295-1" transform="translate(0.375,-0.375)">
			<title>Лист.295</title>
			<rect x="0" y="20.9675" width="85.0394" height="56.6929" rx="8.50394" ry="8.50394" class="st1"/>
		</g>
		<g id="shape296-3" transform="translate(-7.19982,-54.8274) rotate(-16.5698)">
			<title>Лист.296</title>
			<path d="M0 77.66 L66.13 77.66" class="st2"/>
		</g>
		<g id="shape297-6" transform="translate(64.1545,-35.8081)">
			<title>Лист.297</title>
			<ellipse cx="7.08662" cy="70.5738" rx="7.08662" ry="7.08662" class="st1"/>
		</g>
		<g id="shape298-8" transform="translate(7.46164,-35.8081)">
			<title>Лист.298</title>
			<rect x="0" y="63.4872" width="49.6063" height="14.1732" class="st1"/>
		</g>
		<g id="shape299-10" transform="translate(7.46164,-6.04431)">
			<title>Лист.299</title>
			<rect x="0" y="54.9833" width="70.8661" height="22.6771" class="st1"/>
		</g>
		<g id="shape300-12" transform="translate(7.46164,-25.8868)">
			<title>Лист.300</title>
			<path d="M0 77.66 L70.87 77.66" class="st3"/>
		</g>
		<g id="shape301-15" transform="translate(7.46164,-23.0522)">
			<title>Лист.301</title>
			<path d="M0 77.66 L70.87 77.66" class="st3"/>
		</g>
		<g id="shape302-18" transform="translate(7.46164,-20.2175)">
			<title>Лист.302</title>
			<path d="M0 77.66 L70.87 77.66" class="st3"/>
		</g>
		<g id="shape303-21" transform="translate(7.46164,-17.3829)">
			<title>Лист.303</title>
			<path d="M0 77.66 L70.87 77.66" class="st3"/>
		</g>
		<g id="shape304-24" transform="translate(7.46164,-14.5482)">
			<title>Лист.304</title>
			<path d="M0 77.66 L70.87 77.66" class="st3"/>
		</g>
		<g id="shape305-27" transform="translate(7.46164,-11.7136)">
			<title>Лист.305</title>
			<path d="M0 77.66 L70.87 77.66" class="st3"/>
		</g>
		<g id="shape306-30" transform="translate(7.46164,-8.87896)">
			<title>Лист.306</title>
			<path d="M0 77.66 L70.87 77.66" class="st3"/>
		</g>
		<g id="shape307-33" transform="translate(7.46164,-40.0601)">
			<title>Лист.307</title>
			<path d="M0 77.66 L49.61 77.66" class="st3"/>
		</g>
		<g id="shape308-36" transform="translate(92.2087,34.4823) rotate(90)">
			<title>Лист.308</title>
			<path d="M0 77.66 L2.83 77.66" class="st4"/>
		</g>
		<g id="shape309-39" transform="translate(99.2953,31.6476) rotate(90)">
			<title>Лист.309</title>
			<path d="M0 77.66 L5.67 77.66" class="st4"/>
		</g>
		<g id="shape310-42" transform="translate(106.382,34.4823) rotate(90)">
			<title>Лист.310</title>
			<path d="M0 77.66 L2.83 77.66" class="st4"/>
		</g>
		<g id="shape311-45" transform="translate(113.469,31.6476) rotate(90)">
			<title>Лист.311</title>
			<path d="M0 77.66 L5.67 77.66" class="st4"/>
		</g>
		<g id="shape312-48" transform="translate(120.555,34.4823) rotate(90)">
			<title>Лист.312</title>
			<path d="M0 77.66 L2.83 77.66" class="st4"/>
		</g>
		<g id="shape313-51" transform="translate(127.642,31.6476) rotate(90)">
			<title>Лист.313</title>
			<path d="M0 77.66 L5.67 77.66" class="st4"/>
		</g>
		<g id="shape314-54" transform="translate(117.425,27.6791) rotate(90)">
			<title>Лист.314</title>
			<path d="M0 77.66 L14.17 77.66" class="st4"/>
		</g>
		<g id="shape315-57" transform="translate(65.9617,-37.6152)">
			<title>Лист.315</title>
			<ellipse cx="5.2795" cy="72.3809" rx="5.2795" ry="5.2795" class="st1"/>
		</g>
		<g id="shape316-59" transform="translate(92.6081,19.6081) rotate(90)">
			<title>Лист.316</title>
			<path d="M0 77.66 L0.57 77.66" class="st2"/>
		</g>
	</g>
</svg>
