<?xml version="1.0" encoding="UTF-8" standalone="no"?>
<!DOCTYPE svg PUBLIC "-//W3C//DTD SVG 1.1//EN" "http://www.w3.org/Graphics/SVG/1.1/DTD/svg11.dtd">
<!-- Создано Microsoft Visio, экспорт SVG sprite2.svg Страница-1 -->
<svg xmlns="http://www.w3.org/2000/svg" xmlns:xlink="http://www.w3.org/1999/xlink" xmlns:ev="http://www.w3.org/2001/xml-events"
		width="1.78207in" height="1.50845in" viewBox="0 0 128.309 108.608" xml:space="preserve" color-interpolation-filters="sRGB"
		class="st5">
	<style type="text/css">
	<![CDATA[
		.st1 {stroke:#ffffff;stroke-linecap:round;stroke-linejoin:round;stroke-width:0.75}
		.st2 {fill:#ffffff;stroke:#ffffff;stroke-linecap:round;stroke-linejoin:round;stroke-width:0.75}
		.st3 {fill:none;stroke:none;stroke-linecap:round;stroke-linejoin:round;stroke-width:0.75}
		.st4 {fill:#ffffff;font-family:JetBrains Mono;font-size:1.00001em}
		.st5 {fill:none;fill-rule:evenodd;font-size:12px;overflow:visible;stroke-linecap:square;stroke-miterlimit:3}
	]]>
	</style>

	<g>
		<title>Страница-1</title>
		<g id="shape117-1" transform="translate(151.503,4.76872) rotate(90)">
			<title>Лист.117</title>
			<path d="M0 108.61 L19.99 108.61" class="st1"/>
		</g>
		<g id="shape118-4" transform="translate(42.8947,-75.4931)">
			<title>Лист.118</title>
			<path d="M0 108.61 L11.2 108.61 A8.50394 8.50394 -180 0 0 17.44 105.89 A16.6317 16.6317 -180 0 0 17.32 83.15 A8.50394
						 8.50394 -180 0 0 11.32 80.49 L0 80.26" class="st1"/>
		</g>
		<g id="shape119-7" transform="translate(186.936,26.0286) rotate(90)">
			<title>Лист.119</title>
			<path d="M0 108.61 A17.7165 17.7165 0 0 1 28.35 108.61" class="st1"/>
		</g>
		<g id="shape120-10" transform="translate(138.573,-64.339) rotate(33.6901)">
			<title>Лист.120</title>
			<path d="M0 108.61 A30.1775 30.1775 0 0 1 25.55 108.61" class="st1"/>
		</g>
		<g id="shape121-13" transform="translate(138.573,144.743) rotate(-33.6901) scale(1,-1)">
			<title>Лист.121</title>
			<path d="M0 108.61 A30.1775 30.1775 0 0 1 25.55 108.61" class="st1"/>
		</g>
		<g id="shape122-16" transform="translate(151.503,47.2884) rotate(90)">
			<title>Лист.122</title>
			<path d="M0 108.61 L28.35 108.61" class="st1"/>
		</g>
		<g id="shape123-19" transform="translate(42.8947,-32.9734)">
			<title>Лист.123</title>
			<path d="M0 108.61 L11.2 108.61 A8.50394 8.50394 -180 0 0 17.44 105.89 A16.6317 16.6317 -180 0 0 17.32 83.15 A8.50394
						 8.50394 -180 0 0 11.32 80.49 L0 80.26" class="st1"/>
		</g>
		<g id="shape124-22" transform="translate(41.7608,-53.0994)">
			<title>Лист.124</title>
			<ellipse cx="1.13386" cy="107.474" rx="1.13386" ry="1.13386" class="st2"/>
		</g>
		<g id="shape125-24" transform="translate(41.7608,-38.9262)">
			<title>Лист.125</title>
			<ellipse cx="1.13386" cy="107.474" rx="1.13386" ry="1.13386" class="st2"/>
		</g>
		<g id="shape126-26" transform="translate(80.7297,-74.3593)">
			<title>Лист.126</title>
			<ellipse cx="1.13386" cy="107.474" rx="1.13386" ry="1.13386" class="st2"/>
		</g>
		<g id="shape127-28" transform="translate(80.7297,-60.186)">
			<title>Лист.127</title>
			<ellipse cx="1.13386" cy="107.474" rx="1.13386" ry="1.13386" class="st2"/>
		</g>
		<g id="shape128-30" transform="translate(63.7411,-46.0128)">
			<title>Лист.128</title>
			<ellipse cx="1.13386" cy="107.474" rx="1.13386" ry="1.13386" class="st2"/>
		</g>
		<g id="shape129-32" transform="translate(98.1703,-67.2726)">
			<title>Лист.129</title>
			<ellipse cx="1.13386" cy="107.474" rx="1.13386" ry="1.13386" class="st2"/>
		</g>
		<g id="shape130-34" transform="translate(41.6191,-95.7608)">
			<title>Лист.130</title>
			<ellipse cx="1.13386" cy="107.474" rx="1.13386" ry="1.13386" class="st2"/>
		</g>
		<g id="shape131-36" transform="translate(41.6191,-81.5876)">
			<title>Лист.131</title>
			<ellipse cx="1.13386" cy="107.474" rx="1.13386" ry="1.13386" class="st2"/>
		</g>
		<g id="shape132-38" transform="translate(63.5994,-88.6742)">
			<title>Лист.132</title>
			<ellipse cx="1.13386" cy="107.474" rx="1.13386" ry="1.13386" class="st2"/>
		</g>
		<g id="shape133-40" transform="translate(64.769,-89.7431)">
			<title>Лист.133</title>
			<path d="M0 108.61 L6.47 108.61" class="st1"/>
		</g>
		<g id="shape134-43" transform="translate(81.7293,141.723) rotate(180)">
			<title>Лист.134</title>
			<path d="M0 108.61 L10.49 108.61" class="st1"/>
		</g>
		<g id="shape135-46" transform="translate(179.849,18.8651) rotate(90)">
			<title>Лист.135</title>
			<path d="M0 108.61 L14.25 108.61" class="st1"/>
		</g>
		<g id="shape136-49" transform="translate(64.7699,-47.1443)">
			<title>Лист.136</title>
			<path d="M0 108.61 L6.47 108.61" class="st1"/>
		</g>
		<g id="shape137-52" transform="translate(81.8427,155.897) rotate(180)">
			<title>Лист.137</title>
			<path d="M0 108.61 L10.6 108.61" class="st1"/>
		</g>
		<g id="shape138-55" transform="translate(-37.3671,61.464) rotate(-90)">
			<title>Лист.138</title>
			<path d="M0 108.61 L14.18 108.61" class="st1"/>
		</g>
		<g id="shape139-58" transform="translate(99.5876,-68.4065)">
			<title>Лист.139</title>
			<path d="M0 108.61 L14.17 108.61" class="st1"/>
		</g>
		<g id="shape140-61" transform="translate(28.7215,-82.5797)">
			<title>Лист.140</title>
			<path d="M0 108.61 L12.91 108.61" class="st1"/>
		</g>
		<g id="shape141-64" transform="translate(28.7215,-40.06)">
			<title>Лист.141</title>
			<path d="M0 108.61 L13.04 108.61" class="st1"/>
		</g>
		<g id="shape142-67" transform="translate(14.5482,-96.753)">
			<title>Лист.142</title>
			<path d="M0 108.61 L27.08 108.61" class="st1"/>
		</g>
		<g id="shape143-70" transform="translate(14.5482,-54.2333)">
			<title>Лист.143</title>
			<path d="M0 108.61 L27.21 108.61" class="st1"/>
		</g>
		<g id="shape144-73" transform="translate(14.5482,-11.7136)">
			<title>Лист.144</title>
			<path d="M0 108.61 L14.17 108.61" class="st1"/>
		</g>
		<g id="shape145-76" transform="translate(137.33,50.7944) rotate(90)">
			<title>Лист.145</title>
			<path d="M0 108.61 A3.55006 3.55006 0 0 1 7.09 108.61" class="st1"/>
		</g>
		<g id="shape146-79" transform="translate(137.33,26.0286) rotate(90)">
			<title>Лист.146</title>
			<path d="M0 108.61 L24.77 108.61" class="st1"/>
		</g>
		<g id="shape147-82" transform="translate(137.33,57.881) rotate(90)">
			<title>Лист.147</title>
			<path d="M0 108.61 L10.67 108.61" class="st1"/>
		</g>
		<g id="shape148-85" transform="translate(-79.8868,96.8947) rotate(-90)">
			<title>Лист.148</title>
			<path d="M0 108.61 L28.35 108.61" class="st1"/>
		</g>
		<g id="shape149-88" transform="translate(27.5876,-38.9262)">
			<title>Лист.149</title>
			<ellipse cx="1.13386" cy="107.474" rx="1.13386" ry="1.13386" class="st2"/>
		</g>
		<g id="shape150-90" transform="translate(113.761,-57.0679)">
			<title>Лист.150</title>
			<desc>0</desc>
			<rect x="0" y="85.9311" width="14.1732" height="22.6772" class="st3"/>
			<text x="4" y="100.87" class="st4">0</text>		</g>
		<g id="shape151-93" transform="translate(0.375,-85.5561)">
			<title>Лист.151</title>
			<desc>0</desc>
			<rect x="0" y="85.9311" width="14.1732" height="22.6772" class="st3"/>
			<text x="4" y="100.87" class="st4">0</text>		</g>
		<g id="shape152-96" transform="translate(0.375,-42.8947)">
			<title>Лист.152</title>
			<desc>0</desc>
			<rect x="0" y="85.9311" width="14.1732" height="22.6772" class="st3"/>
			<text x="4" y="100.87" class="st4">0</text>		</g>
		<g id="shape153-99" transform="translate(0.375,-0.375)">
			<title>Лист.153</title>
			<desc>1</desc>
			<rect x="0" y="85.9311" width="14.1732" height="22.6772" class="st3"/>
			<text x="4" y="100.87" class="st4">1</text>		</g>
		<g id="shape229-102" transform="translate(-65.7136,33.1152) rotate(-90)">
			<title>Лист.229</title>
			<path d="M0 108.61 L6.1 108.61" class="st1"/>
		</g>
	</g>
</svg>
